<?xml version="1.0" encoding="UTF-8"?>
<svg id="_Слой_2" data-name="Слой 2" xmlns="http://www.w3.org/2000/svg" xmlns:xlink="http://www.w3.org/1999/xlink" viewBox="0 0 101.83 92.98">
  <defs>
    <style>
      .cls-1 {
        fill: none;
        stroke: #1d1d1b;
        stroke-linecap: round;
        stroke-linejoin: round;
        stroke-width: .5px;
      }

      .cls-2 {
        fill: url(#_Безымянный_градиент_6);
      }
    </style>
    <radialGradient id="_Безымянный_градиент_6" data-name="Безымянный градиент 6" cx="50.92" cy="46.49" fx="50.92" fy="46.49" r="48.5" gradientUnits="userSpaceOnUse">
      <stop offset="0" stop-color="#2581c4"/>
      <stop offset="1" stop-color="#2581c4" stop-opacity="0"/>
    </radialGradient>
  </defs>
  <g id="_Слой_1-2" data-name="Слой 1">
    <g>
      <path class="cls-2" d="M101.28,86.81c1.12,2.84-.98,5.91-4.03,5.91h-21.8c-1.88,0-3.55-1.22-4.12-3.02l-2.93-9.22c-.57-1.8-2.24-3.02-4.12-3.02h-27.6c-1.9,0-3.57,1.23-4.13,3.05l-2.84,9.16c-.56,1.82-2.23,3.05-4.13,3.05H4.59c-3.05,0-5.15-3.07-4.03-5.91L33.53,2.99c.65-1.66,2.25-2.74,4.03-2.74h26.73c1.78,0,3.37,1.09,4.02,2.74l32.97,83.82Zm-45.98-29.35c2.94,0,5.02-2.86,4.12-5.65l-4.72-14.7c-1.29-4.01-6.97-4.01-8.25,.01l-4.67,14.7c-.89,2.79,1.2,5.64,4.12,5.64h9.4Z"/>
      <g>
        <path class="cls-1" d="M64.28,77.46h-27.6c-1.9,0-3.57,1.23-4.13,3.05l-2.84,9.16c-.56,1.82-2.23,3.05-4.13,3.05H4.59c-3.05,0-5.15-3.07-4.03-5.91L33.53,2.99c.65-1.66,2.25-2.74,4.03-2.74h26.73c1.78,0,3.37,1.09,4.02,2.74l32.97,83.82c1.12,2.84-.98,5.91-4.03,5.91h-21.8c-1.88,0-3.55-1.22-4.12-3.02l-2.93-9.22c-.57-1.8-2.24-3.02-4.12-3.02Z"/>
        <path class="cls-1" d="M59.42,51.81l-4.72-14.7c-1.29-4.01-6.97-4.01-8.25,.01l-4.67,14.7c-.89,2.79,1.2,5.64,4.12,5.64h9.4c2.94,0,5.02-2.86,4.12-5.65Z"/>
      </g>
    </g>
  </g>
</svg>